# xmcd CD database file
#
# Track frame offsets:
#	150
#	17038
#	37334
#	54850
#	96701
#	106829
#	119439
#	141298
#	155346
#	170123
#	192741
#
# Disc length: 2730 seconds
#
# Revision: 0
# Processed by: cddbd v1.5PL3 Copyright (c) Steve Scherf et al.
# Submitted via: CDex 1.50beta10
#
DISCID=a20aa80b
DTITLE=山口百恵 - Disc11 百恵白書
DYEAR=2003
DGENRE=JPop
TTITLE0=I CAME FROM 横須賀
TTITLE1=鏡の中のある日
TTITLE2=いた・せくすありす
TTITLE3=赤のシリーズ・四人の少女に捧げる 約束
TTITLE4=間奏曲
TTITLE5=二十歳前夜
TTITLE6=お菓子職人
TTITLE7=ボーイッシュ・ベイビー
TTITLE8=ミス・ディオール
TTITLE9=歌い継がれてゆく歌のように
TTITLE10=「スター誕生」again
EXTD=YEAR: 2003
EXTT0=
EXTT1=
EXTT2=
EXTT3=
EXTT4=
EXTT5=
EXTT6=
EXTT7=
EXTT8=
EXTT9=
EXTT10=
PLAYORDER=
